name rise49.5252peak65.1548fall88.8305.mot
datacolumns 19
datarows 27
range 1.17835800000000 1.22165700000000
endheader
time	ground_force1_vx	ground_force1_vy	ground_force1_vz	ground_force1_px	ground_force1_py	ground_force1_pz	ground_force2_vx	ground_force2_vy	ground_force2_vz	ground_force2_px	ground_force2_py	ground_force2_pz	ground_torque1_x	ground_torque1_y	ground_torque1_z	ground_torque2_x	ground_torque2_y	ground_torque2_z	
1.17835800000000	43.73551700000000	748.94009300000005	60.95333500000000	0.33400800000000	0.00000000000000	0.14647100000000	0.00000000000000	0.00000000000000	0.00000000000000	0.00000000000000	0.00000000000000	0.00000000000000	0.00000000000000	27.42168700000000	0.00000000000000	0.00000000000000	0.00000000000000	0.00000000000000	
1.17999300000000	42.95872200000000	751.83390999999995	61.02178600000000	0.33248200000000	0.00000000000000	0.14653300000000	0.00000000000000	0.00000000000000	0.00000000000000	0.00000000000000	0.00000000000000	0.00000000000000	0.00000000000000	27.48392800000000	0.00000000000000	0.00000000000000	0.00000000000000	0.00000000000000	
1.18165600000000	42.18917700000000	754.63758399999995	61.09765900000000	0.33100200000000	0.00000000000000	0.14659600000000	0.00000000000000	0.00000000000000	0.00000000000000	0.00000000000000	0.00000000000000	0.00000000000000	0.00000000000000	27.55287800000000	0.00000000000000	0.00000000000000	0.00000000000000	0.00000000000000	
1.18333600000000	41.42749300000000	757.34796400000005	61.18078000000000	0.32956900000000	0.00000000000000	0.14665800000000	0.00000000000000	0.00000000000000	0.00000000000000	0.00000000000000	0.00000000000000	0.00000000000000	0.00000000000000	27.62838200000000	0.00000000000000	0.00000000000000	0.00000000000000	0.00000000000000	
1.18498700000000	40.67419600000000	759.96194200000002	61.27086000000000	0.32818200000000	0.00000000000000	0.14672100000000	0.00000000000000	0.00000000000000	0.00000000000000	0.00000000000000	0.00000000000000	0.00000000000000	0.00000000000000	27.71021400000000	0.00000000000000	0.00000000000000	0.00000000000000	0.00000000000000	
1.18665500000000	39.92972700000000	762.47647500000005	61.36750200000000	0.32684300000000	0.00000000000000	0.14678300000000	0.00000000000000	0.00000000000000	0.00000000000000	0.00000000000000	0.00000000000000	0.00000000000000	0.00000000000000	27.79808300000000	0.00000000000000	0.00000000000000	0.00000000000000	0.00000000000000	
1.18833900000000	39.19444300000000	764.88860299999999	61.47021000000000	0.32555000000000	0.00000000000000	0.14684400000000	0.00000000000000	0.00000000000000	0.00000000000000	0.00000000000000	0.00000000000000	0.00000000000000	0.00000000000000	27.89164200000000	0.00000000000000	0.00000000000000	0.00000000000000	0.00000000000000	
1.18999300000000	38.46862700000000	767.19547200000000	61.57839200000000	0.32430400000000	0.00000000000000	0.14690500000000	0.00000000000000	0.00000000000000	0.00000000000000	0.00000000000000	0.00000000000000	0.00000000000000	0.00000000000000	27.99048500000000	0.00000000000000	0.00000000000000	0.00000000000000	0.00000000000000	
1.19165500000000	37.75248100000000	769.39435000000003	61.69137000000000	0.32310400000000	0.00000000000000	0.14696600000000	0.00000000000000	0.00000000000000	0.00000000000000	0.00000000000000	0.00000000000000	0.00000000000000	0.00000000000000	28.09415600000000	0.00000000000000	0.00000000000000	0.00000000000000	0.00000000000000	
1.19333400000000	37.04613900000000	771.48264500000005	61.80838700000000	0.32194900000000	0.00000000000000	0.14702600000000	0.00000000000000	0.00000000000000	0.00000000000000	0.00000000000000	0.00000000000000	0.00000000000000	0.00000000000000	28.20215300000000	0.00000000000000	0.00000000000000	0.00000000000000	0.00000000000000	
1.19499500000000	36.34966400000000	773.45792200000005	61.92861600000000	0.32083800000000	0.00000000000000	0.14708500000000	0.00000000000000	0.00000000000000	0.00000000000000	0.00000000000000	0.00000000000000	0.00000000000000	0.00000000000000	28.31393200000000	0.00000000000000	0.00000000000000	0.00000000000000	0.00000000000000	
1.19665300000000	35.66305800000000	775.31792399999995	62.05116800000000	0.31977000000000	0.00000000000000	0.14714300000000	0.00000000000000	0.00000000000000	0.00000000000000	0.00000000000000	0.00000000000000	0.00000000000000	0.00000000000000	28.42891300000000	0.00000000000000	0.00000000000000	0.00000000000000	0.00000000000000	
1.19833600000000	34.98625900000000	777.06057699999997	62.17509900000000	0.31874400000000	0.00000000000000	0.14720000000000	0.00000000000000	0.00000000000000	0.00000000000000	0.00000000000000	0.00000000000000	0.00000000000000	0.00000000000000	28.54648300000000	0.00000000000000	0.00000000000000	0.00000000000000	0.00000000000000	
1.19999000000000	34.31915400000000	778.68401300000005	62.29942200000000	0.31775900000000	0.00000000000000	0.14725600000000	0.00000000000000	0.00000000000000	0.00000000000000	0.00000000000000	0.00000000000000	0.00000000000000	0.00000000000000	28.66600200000000	0.00000000000000	0.00000000000000	0.00000000000000	0.00000000000000	
1.20166200000000	33.66157400000000	780.18658000000005	62.42311500000000	0.31681200000000	0.00000000000000	0.14731200000000	0.00000000000000	0.00000000000000	0.00000000000000	0.00000000000000	0.00000000000000	0.00000000000000	0.00000000000000	28.78680900000000	0.00000000000000	0.00000000000000	0.00000000000000	0.00000000000000	
1.20332000000000	33.01330900000000	781.56685000000004	62.54512800000000	0.31590400000000	0.00000000000000	0.14736600000000	0.00000000000000	0.00000000000000	0.00000000000000	0.00000000000000	0.00000000000000	0.00000000000000	0.00000000000000	28.90822600000000	0.00000000000000	0.00000000000000	0.00000000000000	0.00000000000000	
1.20499000000000	32.37410100000000	782.82363499999997	62.66439400000000	0.31503000000000	0.00000000000000	0.14741800000000	0.00000000000000	0.00000000000000	0.00000000000000	0.00000000000000	0.00000000000000	0.00000000000000	0.00000000000000	29.02956000000000	0.00000000000000	0.00000000000000	0.00000000000000	0.00000000000000	
1.20665900000000	31.74366100000000	783.95599000000004	62.77983800000000	0.31419100000000	0.00000000000000	0.14747000000000	0.00000000000000	0.00000000000000	0.00000000000000	0.00000000000000	0.00000000000000	0.00000000000000	0.00000000000000	29.15011500000000	0.00000000000000	0.00000000000000	0.00000000000000	0.00000000000000	
1.20833100000000	31.12166200000000	784.96322399999997	62.89038600000000	0.31338400000000	0.00000000000000	0.14752000000000	0.00000000000000	0.00000000000000	0.00000000000000	0.00000000000000	0.00000000000000	0.00000000000000	0.00000000000000	29.26918800000000	0.00000000000000	0.00000000000000	0.00000000000000	0.00000000000000	
1.20998800000000	30.50775300000000	785.84490500000004	62.99496900000000	0.31260600000000	0.00000000000000	0.14756900000000	0.00000000000000	0.00000000000000	0.00000000000000	0.00000000000000	0.00000000000000	0.00000000000000	0.00000000000000	29.38608000000000	0.00000000000000	0.00000000000000	0.00000000000000	0.00000000000000	
1.21165600000000	29.90155800000000	786.60086600000000	63.09253900000000	0.31185600000000	0.00000000000000	0.14761600000000	0.00000000000000	0.00000000000000	0.00000000000000	0.00000000000000	0.00000000000000	0.00000000000000	0.00000000000000	29.50009800000000	0.00000000000000	0.00000000000000	0.00000000000000	0.00000000000000	
1.21332000000000	29.30268400000000	787.23120500000005	63.18207000000000	0.31113100000000	0.00000000000000	0.14766200000000	0.00000000000000	0.00000000000000	0.00000000000000	0.00000000000000	0.00000000000000	0.00000000000000	0.00000000000000	29.61056100000000	0.00000000000000	0.00000000000000	0.00000000000000	0.00000000000000	
1.21499100000000	28.71072300000000	787.73629000000005	63.26257000000000	0.31043000000000	0.00000000000000	0.14770600000000	0.00000000000000	0.00000000000000	0.00000000000000	0.00000000000000	0.00000000000000	0.00000000000000	0.00000000000000	29.71680000000000	0.00000000000000	0.00000000000000	0.00000000000000	0.00000000000000	
1.21665500000000	28.12525700000000	788.11675800000000	63.33308500000000	0.30974900000000	0.00000000000000	0.14774900000000	0.00000000000000	0.00000000000000	0.00000000000000	0.00000000000000	0.00000000000000	0.00000000000000	0.00000000000000	29.81816900000000	0.00000000000000	0.00000000000000	0.00000000000000	0.00000000000000	
1.21833300000000	27.54586300000000	788.37351500000000	63.39270800000000	0.30908600000000	0.00000000000000	0.14779000000000	0.00000000000000	0.00000000000000	0.00000000000000	0.00000000000000	0.00000000000000	0.00000000000000	0.00000000000000	29.91404100000000	0.00000000000000	0.00000000000000	0.00000000000000	0.00000000000000	
1.21998900000000	26.97211700000000	788.50773400000003	63.44058400000000	0.30844000000000	0.00000000000000	0.14783000000000	0.00000000000000	0.00000000000000	0.00000000000000	0.00000000000000	0.00000000000000	0.00000000000000	0.00000000000000	30.00381900000000	0.00000000000000	0.00000000000000	0.00000000000000	0.00000000000000	
1.22165700000000	26.40359800000000	788.52085000000000	63.47591700000000	0.30780600000000	0.00000000000000	0.14786800000000	0.00000000000000	0.00000000000000	0.00000000000000	0.00000000000000	0.00000000000000	0.00000000000000	0.00000000000000	30.08693300000000	0.00000000000000	0.00000000000000	0.00000000000000	0.00000000000000	
